<svg xmlns="http://www.w3.org/2000/svg" width="876.3" height="272" viewBox="0 0 876.3 272">
  <g id="Group_95" data-name="Group 95" transform="translate(-262.7 -317)">
    <path id="Path_1001" data-name="Path 1001" d="M-350.3-83.2h-18.4V0h-34.2V-83.2h-12.4v-28.4h12.4v-3.2q0-20.6,11.8-31.3t34.6-10.7q3.8,0,5.6.2v29q-9.8-.6-13.8,2.8t-4,12.2v1h18.4Zm66.8,84.8a61.6,61.6,0,0,1-29.5-7,51.256,51.256,0,0,1-20.6-20q-7.5-13-7.5-30.4,0-17.2,7.6-30.3a51.569,51.569,0,0,1,20.8-20.1,62.188,62.188,0,0,1,29.6-7,62.188,62.188,0,0,1,29.6,7,51.569,51.569,0,0,1,20.8,20.1q7.6,13.1,7.6,30.3t-7.7,30.3a52.068,52.068,0,0,1-21,20.1A62.779,62.779,0,0,1-283.5,1.6Zm0-29.6a22.28,22.28,0,0,0,16.7-7.2q6.9-7.2,6.9-20.6t-6.7-20.6a21.652,21.652,0,0,0-16.5-7.2,21.7,21.7,0,0,0-16.6,7.1q-6.6,7.1-6.6,20.7,0,13.4,6.5,20.6A21.037,21.037,0,0,0-283.5-28Zm69.8-27.8q0-17.4,7.1-30.4a49.313,49.313,0,0,1,19.8-20q12.7-7,29.1-7,21,0,35.1,11t18.5,31h-36.4Q-145.1-84-158.3-84a17.941,17.941,0,0,0-15,7.3q-5.6,7.3-5.6,20.9t5.6,20.9a17.941,17.941,0,0,0,15,7.3q13.2,0,17.8-12.8h36.4q-4.4,19.6-18.6,30.8t-35,11.2q-16.4,0-29.1-7a49.313,49.313,0,0,1-19.8-20Q-213.7-38.4-213.7-55.8ZM84.1-148V0H49.9V-148ZM159.7,1.6a61.6,61.6,0,0,1-29.5-7,51.256,51.256,0,0,1-20.6-20q-7.5-13-7.5-30.4,0-17.2,7.6-30.3a51.569,51.569,0,0,1,20.8-20.1,62.188,62.188,0,0,1,29.6-7,62.188,62.188,0,0,1,29.6,7,51.569,51.569,0,0,1,20.8,20.1q7.6,13.1,7.6,30.3t-7.7,30.3a52.068,52.068,0,0,1-21,20.1A62.779,62.779,0,0,1,159.7,1.6Zm0-29.6a22.28,22.28,0,0,0,16.7-7.2q6.9-7.2,6.9-20.6t-6.7-20.6a21.652,21.652,0,0,0-16.5-7.2,21.7,21.7,0,0,0-16.6,7.1q-6.6,7.1-6.6,20.7,0,13.4,6.5,20.6A21.037,21.037,0,0,0,159.7-28ZM288.5-56q0-17.2,6.5-30.2a48.485,48.485,0,0,1,17.7-20,46.209,46.209,0,0,1,25-7,43.911,43.911,0,0,1,20.1,4.6,36.626,36.626,0,0,1,14.3,12.4V-148h34.2V0H372.1V-16A34.84,34.84,0,0,1,358.4-3.2a42.947,42.947,0,0,1-20.7,4.8,45.725,45.725,0,0,1-25-7.1A49.063,49.063,0,0,1,295-25.7Q288.5-38.8,288.5-56Zm83.6.2q0-12.8-7.1-20.2a23.068,23.068,0,0,0-17.3-7.4,23.22,23.22,0,0,0-17.3,7.3q-7.1,7.3-7.1,20.1t7.1,20.3a22.922,22.922,0,0,0,17.3,7.5A23.068,23.068,0,0,0,365-35.6Q372.1-43,372.1-55.8Z" transform="translate(678 521.145)" fill="#fff"/>
    <path id="Path_1002" data-name="Path 1002" d="M-92.7-56q0-17.2,6.5-30.2a48.485,48.485,0,0,1,17.7-20,46.209,46.209,0,0,1,25-7,42.947,42.947,0,0,1,20.7,4.8A35.359,35.359,0,0,1-9.1-95.8v-15.8H25.1V0H-9.1V-15.8A36.932,36.932,0,0,1-23-3.2,42.947,42.947,0,0,1-43.7,1.6,45.378,45.378,0,0,1-68.5-5.5,49.062,49.062,0,0,1-86.2-25.7Q-92.7-38.8-92.7-56Zm83.6.2q0-12.8-7.1-20.2a23.068,23.068,0,0,0-17.3-7.4,23.22,23.22,0,0,0-17.3,7.3q-7.1,7.3-7.1,20.1t7.1,20.3a22.922,22.922,0,0,0,17.3,7.5,23.068,23.068,0,0,0,17.3-7.4Q-9.1-43-9.1-55.8Zm262.6-67.4q-9,0-14.7-5.3a17.174,17.174,0,0,1-5.7-13.1,17.4,17.4,0,0,1,5.7-13.3q5.7-5.3,14.7-5.3,8.8,0,14.5,5.3a17.4,17.4,0,0,1,5.7,13.3,17.174,17.174,0,0,1-5.7,13.1Q262.3-123.2,253.5-123.2Zm17,11.6V0H236.3V-111.6Z" transform="translate(678 521.691)" fill="#f80000"/>
    <rect id="Rectangle_27" data-name="Rectangle 27" width="4" height="40" transform="translate(761 549)" fill="#f80000"/>
    <rect id="Rectangle_28" data-name="Rectangle 28" width="4" height="40" transform="translate(921 549)" fill="#f80000"/>
    <g id="Group_77" data-name="Group 77">
      <g id="Group_75" data-name="Group 75">
        <g id="Rectangle_31" data-name="Rectangle 31" transform="translate(1066 344)" fill="#f80000" stroke="#f80000" stroke-width="1">
          <rect width="47" height="14" stroke="none"/>
          <rect x="-0.5" y="-0.5" width="48" height="15" fill="none"/>
        </g>
        <g id="Rectangle_32" data-name="Rectangle 32" transform="translate(1113 344) rotate(90)" fill="#f80000" stroke="#f80000" stroke-width="1">
          <rect width="47" height="14" stroke="none"/>
          <rect x="-0.5" y="-0.5" width="48" height="15" fill="none"/>
        </g>
      </g>
      <g id="Group_76" data-name="Group 76" transform="translate(25 -26)">
        <g id="Rectangle_31-2" data-name="Rectangle 31" transform="translate(1066 344)" fill="#f80000" stroke="#f80000" stroke-width="1">
          <rect width="47" height="14" stroke="none"/>
          <rect x="-0.5" y="-0.5" width="48" height="15" fill="none"/>
        </g>
        <g id="Rectangle_32-2" data-name="Rectangle 32" transform="translate(1113 344) rotate(90)" fill="#f80000" stroke="#f80000" stroke-width="1">
          <rect width="47" height="14" stroke="none"/>
          <rect x="-0.5" y="-0.5" width="48" height="15" fill="none"/>
        </g>
      </g>
    </g>
    <path id="Path_1009" data-name="Path 1009" d="M1.675-7.1h-14.55l-2.5,7.1h-5.95l12.45-34.8h6.6L10.175,0h-6Zm-1.6-4.65L-5.575-27.9l-5.7,16.15Zm19.2-23V0h-5.7V-34.75Z" transform="translate(718 588)" fill="#fff"/>
    <path id="Path_1008" data-name="Path 1008" d="M-42.825-34.75A21.165,21.165,0,0,1-33.1-32.625a15.2,15.2,0,0,1,6.45,6.1,18.348,18.348,0,0,1,2.275,9.275,17.935,17.935,0,0,1-2.275,9.2A15.024,15.024,0,0,1-33.1-2.075,21.591,21.591,0,0,1-42.825,0h-11.35V-34.75Zm0,30.1q6.1,0,9.35-3.3t3.25-9.3q0-6.05-3.25-9.45t-9.35-3.4h-5.65V-4.65Zm20.2-9.25A15.247,15.247,0,0,1-20.9-21.25a12.644,12.644,0,0,1,4.7-4.975A12.591,12.591,0,0,1-9.625-28,12.027,12.027,0,0,1-3.95-26.725,11.517,11.517,0,0,1-.075-23.55v-4h5.75V0H-.075V-4.1A11.32,11.32,0,0,1-4.025-.85a12.174,12.174,0,0,1-5.7,1.3,12.114,12.114,0,0,1-6.5-1.825,12.943,12.943,0,0,1-4.675-5.1A15.689,15.689,0,0,1-22.625-13.9Zm22.55.1A9.976,9.976,0,0,0-1.25-18.75a8.248,8.248,0,0,0-3.075-3.2,8.045,8.045,0,0,0-4.1-1.1,8.189,8.189,0,0,0-4.1,1.075,8.107,8.107,0,0,0-3.075,3.15A9.835,9.835,0,0,0-16.775-13.9a10.263,10.263,0,0,0,1.175,5,8.29,8.29,0,0,0,3.1,3.275A7.951,7.951,0,0,0-8.425-4.5a8.045,8.045,0,0,0,4.1-1.1A8.207,8.207,0,0,0-1.25-8.825,10.119,10.119,0,0,0-.075-13.8Zm17.9-9.1V-7.65a2.927,2.927,0,0,0,.725,2.225,3.6,3.6,0,0,0,2.475.675h3.5V0h-4.5a8.674,8.674,0,0,1-5.9-1.8q-2.05-1.8-2.05-5.85V-22.9H8.825v-4.65h3.25V-34.4h5.75v6.85h6.7v4.65Zm8.05,9A15.247,15.247,0,0,1,27.6-21.25a12.644,12.644,0,0,1,4.7-4.975A12.591,12.591,0,0,1,38.875-28a12.027,12.027,0,0,1,5.675,1.275,11.516,11.516,0,0,1,3.875,3.175v-4h5.75V0h-5.75V-4.1a11.32,11.32,0,0,1-3.95,3.25,12.174,12.174,0,0,1-5.7,1.3,12.114,12.114,0,0,1-6.5-1.825,12.943,12.943,0,0,1-4.675-5.1A15.689,15.689,0,0,1,25.875-13.9Zm22.55.1a9.976,9.976,0,0,0-1.175-4.95,8.248,8.248,0,0,0-3.075-3.2,8.045,8.045,0,0,0-4.1-1.1,8.189,8.189,0,0,0-4.1,1.075,8.107,8.107,0,0,0-3.075,3.15A9.835,9.835,0,0,0,31.725-13.9a10.263,10.263,0,0,0,1.175,5A8.29,8.29,0,0,0,36-5.625,7.951,7.951,0,0,0,40.075-4.5a8.045,8.045,0,0,0,4.1-1.1A8.207,8.207,0,0,0,47.25-8.825,10.119,10.119,0,0,0,48.425-13.8Z" transform="translate(843 587)" fill="#fff"/>
    <path id="Path_1010" data-name="Path 1010" d="M-69.2-17.45a17.748,17.748,0,0,1,2.375-9.15,16.91,16.91,0,0,1,6.45-6.325A18,18,0,0,1-51.45-35.2a18.131,18.131,0,0,1,9.875,2.725A15.516,15.516,0,0,1-35.3-24.75h-6.85a9.184,9.184,0,0,0-3.75-4.1,11.128,11.128,0,0,0-5.55-1.35,12.129,12.129,0,0,0-6.15,1.55,10.788,10.788,0,0,0-4.225,4.45,14.3,14.3,0,0,0-1.525,6.75,14.3,14.3,0,0,0,1.525,6.75A10.955,10.955,0,0,0-57.6-6.225,11.978,11.978,0,0,0-51.45-4.65,11.128,11.128,0,0,0-45.9-6a9.184,9.184,0,0,0,3.75-4.1h6.85a15.385,15.385,0,0,1-6.275,7.7A18.257,18.257,0,0,1-51.45.3,17.959,17.959,0,0,1-60.4-1.975,16.962,16.962,0,0,1-66.825-8.3,17.748,17.748,0,0,1-69.2-17.45ZM-24.95-37V0h-5.7V-37ZM-7.5.45a14.109,14.109,0,0,1-7.05-1.775,12.751,12.751,0,0,1-4.95-5A15.082,15.082,0,0,1-21.3-13.8a14.793,14.793,0,0,1,1.85-7.45,12.778,12.778,0,0,1,5.05-5A14.654,14.654,0,0,1-7.25-28,14.654,14.654,0,0,1-.1-26.25a12.778,12.778,0,0,1,5.05,5A14.793,14.793,0,0,1,6.8-13.8,14.486,14.486,0,0,1,4.9-6.35,13.156,13.156,0,0,1-.275-1.325,14.916,14.916,0,0,1-7.5.45Zm0-4.95A8.482,8.482,0,0,0-3.375-5.55,8,8,0,0,0-.25-8.7a10.127,10.127,0,0,0,1.2-5.1A10.338,10.338,0,0,0-.2-18.875,7.763,7.763,0,0,0-3.25-22a8.341,8.341,0,0,0-4.1-1.05A8.2,8.2,0,0,0-11.425-22,7.5,7.5,0,0,0-14.4-18.875,10.724,10.724,0,0,0-15.5-13.8q0,4.45,2.275,6.875A7.518,7.518,0,0,0-7.5-4.5ZM35.4-27.55V0H29.7V-3.25A9.226,9.226,0,0,1,26.175-.575,11.178,11.178,0,0,1,21.55.4,12.354,12.354,0,0,1,15.725-.95a9.753,9.753,0,0,1-4.05-4,12.976,12.976,0,0,1-1.475-6.4v-16.2h5.65V-12.2A8,8,0,0,0,17.7-6.525,6.584,6.584,0,0,0,22.75-4.55a6.665,6.665,0,0,0,5.075-1.975A7.929,7.929,0,0,0,29.7-12.2V-27.55ZM39-13.9a15.247,15.247,0,0,1,1.725-7.35,12.644,12.644,0,0,1,4.7-4.975A12.684,12.684,0,0,1,52.05-28a12.92,12.92,0,0,1,5.325,1.175A10.9,10.9,0,0,1,61.55-23.7V-37H67.3V0H61.55V-4.15a10.672,10.672,0,0,1-3.875,3.3A12.023,12.023,0,0,1,52,.45a12.329,12.329,0,0,1-6.575-1.825,12.88,12.88,0,0,1-4.7-5.1A15.689,15.689,0,0,1,39-13.9Zm22.55.1a9.976,9.976,0,0,0-1.175-4.95,8.248,8.248,0,0,0-3.075-3.2,8.045,8.045,0,0,0-4.1-1.1,8.189,8.189,0,0,0-4.1,1.075,8.107,8.107,0,0,0-3.075,3.15A9.835,9.835,0,0,0,44.85-13.9a10.263,10.263,0,0,0,1.175,5,8.29,8.29,0,0,0,3.1,3.275A7.951,7.951,0,0,0,53.2-4.5a8.045,8.045,0,0,0,4.1-1.1,8.207,8.207,0,0,0,3.075-3.225A10.119,10.119,0,0,0,61.55-13.8Z" transform="translate(1016 588)" fill="#fff"/>
  </g>
</svg>
