<svg xmlns="http://www.w3.org/2000/svg" width="140" height="140" viewBox="0 0 140 140"><g id="Group_1794" data-name="Group 1794" transform="translate(-83 -6898)"><rect id="Rectangle_1442" data-name="Rectangle 1442" width="140" height="140" transform="translate(83 6898)" fill="#f8f8f8"></rect><g id="left-quote" transform="translate(135 6953.5)"><path id="Path_17" data-name="Path 17" d="M15.4,13.6V29H0V13.38C0,2.82,9.9,1.5,9.9,1.5l1.32,3.08s-4.4.66-5.28,4.18a5.522,5.522,0,0,0,.88,4.84Z" transform="translate(0 0)" fill="#f80000"></path><path id="Path_18" data-name="Path 18" d="M24.4,13.6V29H9V13.38C9,2.82,18.9,1.5,18.9,1.5l1.32,3.08s-4.4.66-5.28,4.18a5.522,5.522,0,0,0,.88,4.84Z" transform="translate(10.8 0)" fill="#f80000"></path></g></g></svg>