<svg xmlns="http://www.w3.org/2000/svg" width="105.278" height="36.333" viewBox="0 0 105.278 36.333">
  <g id="Group_2325" data-name="Group 2325" transform="translate(-603.558 -356.185)">
    <g id="Group_77" data-name="Group 77" transform="translate(673.001 356.185)">
      <g id="Group_75" data-name="Group 75" transform="translate(0 12.941)">
        <rect id="Rectangle_31" data-name="Rectangle 31" width="23.393" height="6.968" fill="#f80000"/>
        <rect id="Rectangle_32" data-name="Rectangle 32" width="23.393" height="6.968" transform="translate(23.393) rotate(90)" fill="#f80000"/>
      </g>
      <g id="Group_76" data-name="Group 76" transform="translate(12.443 0)">
        <rect id="Rectangle_31-2" data-name="Rectangle 31" width="23.393" height="6.968" transform="translate(0)" fill="#f80000"/>
        <rect id="Rectangle_32-2" data-name="Rectangle 32" width="23.393" height="6.968" transform="translate(23.393) rotate(90)" fill="#f80000"/>
      </g>
    </g>
    <path id="Path_6838" data-name="Path 6838" d="M-31.066,0h-5.376V-9.59h1.554v8.2h3.822Zm4.172-2.03a1.917,1.917,0,0,0,1.82.826,1.912,1.912,0,0,0,1.813-.812,5.777,5.777,0,0,0,.469-2.723,5.994,5.994,0,0,0-.483-2.779,1.874,1.874,0,0,0-1.8-.868,1.891,1.891,0,0,0-1.806.868,5.88,5.88,0,0,0-.49,2.765A5.754,5.754,0,0,0-26.894-2.03Zm4.844,1.008A3.5,3.5,0,0,1-25.074.154a3.528,3.528,0,0,1-3.038-1.183,6.336,6.336,0,0,1-.868-3.717A6.541,6.541,0,0,1-28.1-8.512a3.464,3.464,0,0,1,3.031-1.232A3.453,3.453,0,0,1-22.05-8.519a6.577,6.577,0,0,1,.868,3.773A6.331,6.331,0,0,1-22.05-1.022ZM-18.956,0l2.366-9.59H-13.5L-11.116,0h-1.568L-13.2-2.058h-3.682L-17.4,0Zm3.57-8.288-1.19,4.858h3.066l-1.176-4.858ZM-5.026,0H-8.344V-9.59h3.318A3.514,3.514,0,0,1-2-8.47,6.044,6.044,0,0,1-1.19-4.956a11.268,11.268,0,0,1-.161,2.065,4.71,4.71,0,0,1-.567,1.533Q-2.716,0-5.026,0ZM-2.8-4.956a5.375,5.375,0,0,0-.434-2.506,1.878,1.878,0,0,0-1.792-.77H-6.79v6.86h1.764A1.822,1.822,0,0,0-3.178-2.394a4.119,4.119,0,0,0,.3-1.106A11.5,11.5,0,0,0-2.8-4.956ZM2.03,0V-9.59H3.584V0ZM7.2,0V-9.59H9.912l2.912,8.218h.21V-9.59h1.554V0h-2.66L8.946-8.232h-.2V0Zm14.91-3.668V-5.04h2.73V-.168A12.271,12.271,0,0,1,23.3.042Q22.148.154,21.63.154a3.4,3.4,0,0,1-3.01-1.2,6.779,6.779,0,0,1-.826-3.773,6.5,6.5,0,0,1,.847-3.745,3.374,3.374,0,0,1,2.933-1.176,15.648,15.648,0,0,1,2.772.28l.49.1L24.78-8.134a23.415,23.415,0,0,0-3.038-.224A2.041,2.041,0,0,0,19.9-7.6a5.513,5.513,0,0,0-.5,2.8,5.934,5.934,0,0,0,.469,2.821,2.041,2.041,0,0,0,1.9.777A6.8,6.8,0,0,0,23.3-1.33V-3.668ZM27.93,0V-2.016h1.638V0ZM31.5,0V-2.016h1.638V0Zm3.556,0V-2.016h1.638V0Z" transform="translate(640 390.352)" fill="#0b0b0b"/>
  </g>
</svg>
